<svg xmlns="http://www.w3.org/2000/svg" version="1.1" xmlns:xlink="http://www.w3.org/1999/xlink" xmlns:svgjs="http://svgjs.com/svgjs" width="566" height="566"><svg width="566" height="566" viewBox="0 0 566 566" fill="none" xmlns="http://www.w3.org/2000/svg">
<g filter="url(#filter0_d)">
<path d="M2 35H560V548C560 553.523 555.523 558 550 558H12C6.47715 558 2 553.523 2 548V35Z" fill="#171717"></path>
<path d="M12 0.5H550C555.247 0.5 559.5 4.7533 559.5 10V69.5H2.5V10C2.5 4.75329 6.7533 0.5 12 0.5Z" fill="#AFAFAF" stroke="#5A5A5A"></path>
<circle cx="532" cy="35" r="17" fill="#E23B3B"></circle>
<circle cx="485" cy="35" r="17" fill="#E4F28F"></circle>
<circle cx="438" cy="35" r="17" fill="#75DC80"></circle>
<path d="M346.418 447H393.537V443.094C390.607 435.77 388.329 427.225 386.701 417.459C385.074 407.531 384.26 398.172 384.26 389.383V266.58C384.26 251.769 381.574 238.829 376.203 227.762C370.832 216.694 363.508 207.417 354.23 199.93C344.79 192.605 333.641 187.153 320.783 183.572C307.925 179.829 294.009 177.957 279.035 177.957C262.596 177.957 247.867 180.236 234.846 184.793C221.988 189.35 211.083 195.291 202.131 202.615C193.016 210.102 186.018 218.484 181.135 227.762C176.415 237.039 173.973 246.479 173.811 256.082H219.221C219.221 250.548 220.523 245.258 223.127 240.213C225.894 235.005 229.719 230.529 234.602 226.785C239.484 223.042 245.425 220.031 252.424 217.752C259.585 215.473 267.642 214.334 276.594 214.334C286.197 214.334 294.823 215.555 302.473 217.996C310.285 220.438 316.877 223.855 322.248 228.25C327.619 232.807 331.77 238.26 334.699 244.607C337.629 250.955 339.094 258.117 339.094 266.092V286.844H289.777C271.385 286.844 254.702 288.634 239.729 292.215C224.917 295.796 212.222 301.167 201.643 308.328C191.063 315.652 182.844 324.767 176.984 335.672C171.288 346.577 168.439 359.272 168.439 373.758C168.439 384.826 170.555 395.161 174.787 404.764C179.182 414.204 185.367 422.342 193.342 429.178C201.154 436.176 210.676 441.71 221.906 445.779C233.299 449.848 245.995 451.883 259.992 451.883C268.618 451.883 276.757 450.988 284.406 449.197C292.056 447.407 299.299 444.965 306.135 441.873C312.808 438.781 318.911 435.2 324.445 431.131C330.142 427.062 335.269 422.749 339.826 418.191C340.314 423.725 341.047 429.096 342.023 434.305C343.163 439.35 344.628 443.582 346.418 447ZM266.584 412.576C257.795 412.576 250.064 411.437 243.391 409.158C236.717 406.88 231.184 403.706 226.789 399.637C222.395 395.73 219.058 391.01 216.779 385.477C214.663 379.943 213.605 373.921 213.605 367.41C213.605 360.574 214.826 354.471 217.268 349.1C219.872 343.729 223.615 339.09 228.498 335.184C235.334 329.65 244.53 325.581 256.086 322.977C267.805 320.21 281.477 318.826 297.102 318.826H339.094V372.293C336.49 377.501 332.909 382.547 328.352 387.43C323.794 392.15 318.423 396.382 312.238 400.125C305.891 403.868 298.892 406.88 291.242 409.158C283.592 411.437 275.373 412.576 266.584 412.576Z" fill="#D5D5D5"></path>
</g>
<defs>
<filter id="SvgjsFilter1000" x="0" y="0" width="566" height="566" filterUnits="userSpaceOnUse" color-interpolation-filters="sRGB">
<feFlood flood-opacity="0" result="BackgroundImageFix"></feFlood>
<feColorMatrix in="SourceAlpha" type="matrix" values="0 0 0 0 0 0 0 0 0 0 0 0 0 0 0 0 0 0 127 0" result="hardAlpha"></feColorMatrix>
<feOffset dx="2" dy="4"></feOffset>
<feGaussianBlur stdDeviation="2"></feGaussianBlur>
<feColorMatrix type="matrix" values="0 0 0 0 0 0 0 0 0 0 0 0 0 0 0 0 0 0 0.25 0"></feColorMatrix>
<feBlend mode="normal" in2="BackgroundImageFix" result="effect1_dropShadow"></feBlend>
<feBlend mode="normal" in="SourceGraphic" in2="effect1_dropShadow" result="shape"></feBlend>
</filter>
</defs>
</svg><style>@media (prefers-color-scheme: light) { :root { filter: none; } }
</style></svg>